<svg width="24" height="20" viewBox="0 0 24 20" fill="none" xmlns="http://www.w3.org/2000/svg">
<g clip-path="url(#clip0_225_539)">
<mask id="mask0_225_539" style="mask-type:luminance" maskUnits="userSpaceOnUse" x="0" y="0" width="24" height="20">
<path d="M24 0H0V19.8261H24V0Z" fill="white"/>
</mask>
<g mask="url(#mask0_225_539)">
<path d="M12.031 16.0095C11.1879 16.0032 10.3534 15.8379 9.57156 15.5222C9.50904 15.4935 9.44014 15.4814 9.37157 15.4871C9.303 15.4929 9.23709 15.5163 9.18025 15.5551C8.69816 15.8332 8.20877 16.0993 7.72251 16.3695C7.63284 16.4431 7.52255 16.487 7.40686 16.4952C7.29117 16.5035 7.17577 16.4756 7.0766 16.4155C6.98043 16.3422 6.90954 16.2407 6.87381 16.1252C6.83808 16.0097 6.8393 15.8859 6.87729 15.7711C6.98634 15.2436 7.09643 14.7156 7.22373 14.1923C7.24474 14.1266 7.24694 14.0562 7.23007 13.9893C7.21319 13.9224 7.17792 13.8615 7.12825 13.8135C6.46104 13.0632 5.97511 12.1695 5.70796 11.2016C5.44081 10.2337 5.39957 9.21735 5.58743 8.23096C5.77529 7.24458 6.18722 6.31453 6.79145 5.51257C7.39567 4.7106 8.17605 4.05815 9.07237 3.60554C9.96869 3.15294 10.957 2.91228 11.9611 2.90213C12.9651 2.89198 13.9581 3.11261 14.8634 3.547C15.7687 3.98139 16.5621 4.61793 17.1824 5.40752C17.8027 6.19711 18.2334 7.11864 18.4411 8.10102C18.6314 8.96793 18.642 9.86465 18.4723 10.7358C18.3026 11.607 17.9561 12.4341 17.4543 13.1662C16.9525 13.8983 16.306 14.5198 15.5547 14.9923C14.8034 15.4648 13.9632 15.7783 13.086 15.9135C12.738 15.9694 12.3832 15.9788 12.031 16.0095ZM15.3696 10.6842C15.6128 10.6808 15.8495 10.6055 16.0499 10.4676C16.2502 10.3298 16.4052 10.1356 16.4952 9.90973C16.5852 9.68382 16.6063 9.43629 16.5556 9.19843C16.505 8.96058 16.3849 8.74308 16.2107 8.57343C16.0365 8.40378 15.8158 8.28961 15.5767 8.24534C15.3376 8.20107 15.0907 8.22869 14.8673 8.32471C14.6438 8.42074 14.4539 8.58085 14.3215 8.78481C14.189 8.98877 14.12 9.22742 14.1232 9.47059C14.1283 9.79657 14.2623 10.1073 14.4959 10.3347C14.7295 10.5621 15.0436 10.6878 15.3696 10.6842ZM8.67469 10.6842C8.91785 10.69 9.15728 10.6235 9.36269 10.4933C9.5681 10.363 9.73026 10.1747 9.82867 9.95231C9.92708 9.72987 9.95732 9.48325 9.91556 9.24362C9.8738 9.004 9.76191 8.78215 9.59405 8.60612C9.4262 8.43008 9.20991 8.30779 8.97254 8.25469C8.73517 8.20159 8.48739 8.22007 8.26053 8.3078C8.03367 8.39553 7.83792 8.54857 7.69804 8.74756C7.55816 8.94655 7.48043 9.18255 7.47468 9.42572C7.46726 9.75163 7.58944 10.0672 7.81442 10.3031C8.0394 10.539 8.34878 10.6761 8.67469 10.6842ZM12.0357 10.6842C12.2793 10.6842 12.5174 10.612 12.7199 10.4766C12.9223 10.3412 13.08 10.1487 13.173 9.92355C13.2659 9.6984 13.2898 9.45072 13.2418 9.21193C13.1938 8.97314 13.0759 8.75399 12.9032 8.58227C12.7304 8.41055 12.5106 8.294 12.2715 8.24739C12.0324 8.20079 11.7849 8.22623 11.5603 8.32049C11.3357 8.41475 11.1442 8.57359 11.01 8.77686C10.8758 8.98013 10.805 9.21867 10.8065 9.46224C10.8058 9.62352 10.8372 9.78332 10.8988 9.93236C10.9604 10.0814 11.051 10.2167 11.1654 10.3304C11.2798 10.4441 11.4157 10.5339 11.5651 10.5947C11.7145 10.6554 11.8745 10.6858 12.0357 10.6842Z" fill="#FFAFCA"/>
<path d="M14.2675 18.6616C14.2675 18.779 14.2722 18.8765 14.2675 18.9746C14.2575 19.2074 14.1597 19.4276 13.9937 19.5911C13.8278 19.7546 13.6061 19.8492 13.3733 19.8558C12.4797 19.8677 11.586 19.8677 10.6921 19.8558C10.4593 19.8482 10.2381 19.7523 10.0734 19.5876C9.90871 19.4229 9.8128 19.2017 9.80511 18.9689C9.79572 18.7659 9.79624 18.5614 9.80511 18.3585C9.81156 18.1212 9.90957 17.8957 10.0786 17.7291C10.2476 17.5625 10.4746 17.4677 10.7119 17.4647C11.1982 17.4538 11.6849 17.4585 12.1728 17.4616C14.0135 17.4716 15.7958 16.8164 17.1919 15.6167C18.1864 14.8105 18.9561 13.7614 19.4265 12.5708C19.5642 12.1621 19.6612 11.7407 19.7161 11.3129C19.8095 10.7912 19.8439 10.2574 19.9576 9.74089C20.1133 8.91916 20.0474 8.07081 19.7667 7.28298C18.7456 4.03933 16.5507 2.06559 13.2001 1.50993C12.1426 1.35195 11.0642 1.40698 10.0283 1.67177C8.99244 1.93657 8.01994 2.4058 7.16801 3.05187C6.31608 3.69794 5.60191 4.50781 5.0675 5.43387C4.53308 6.35993 4.1892 7.38349 4.05607 8.44437C4.02303 9.07059 4.07391 9.69842 4.20737 10.3112C4.3592 11.4068 4.53868 12.4962 4.69624 13.5898C4.73632 13.7142 4.74826 13.8459 4.73122 13.9755C4.71417 14.1051 4.66856 14.2293 4.59767 14.3392C4.52679 14.449 4.4324 14.5417 4.32132 14.6106C4.21025 14.6795 4.08525 14.7229 3.95537 14.7376C3.47389 14.9236 2.95088 14.9752 2.44233 14.8868C2.11533 14.8016 1.80883 14.6514 1.54109 14.4453C1.27335 14.2391 1.04985 13.9812 0.883895 13.6868C0.386569 12.9329 0.0880283 12.0655 0.0160538 11.1652C-0.0559207 10.2649 0.10101 9.36108 0.472243 8.53776C0.655886 8.05263 0.974554 7.63021 1.39059 7.3204C1.80664 7.01059 2.30266 6.82633 2.82007 6.78941C2.89259 6.78263 2.98598 6.66002 3.0152 6.57289C3.47561 5.1533 4.26178 3.86112 5.31085 2.79967C6.45166 1.65125 7.8678 0.814396 9.42406 0.369011C10.9803 -0.0763737 12.6248 -0.115427 14.2004 0.25558C15.7761 0.626587 17.2304 1.39527 18.4244 2.48825C19.6184 3.58123 20.5124 4.96202 21.0209 6.4988C21.0622 6.62402 21.0382 6.80611 21.2677 6.8155C21.8274 6.83073 22.367 7.0279 22.8046 7.37716C23.2423 7.72642 23.5542 8.20876 23.6933 8.75115C24.0306 9.60334 24.1439 10.5277 24.0224 11.4362C23.9009 12.3446 23.5487 13.2067 22.9994 13.9404C22.8189 14.2274 22.5726 14.4674 22.2809 14.6402C21.9892 14.8131 21.6605 14.9139 21.322 14.9343C20.9179 14.9118 20.518 14.8417 20.1303 14.7256C20.0699 14.7028 20.0033 14.7025 19.9428 14.7248C19.8822 14.7472 19.8317 14.7906 19.8006 14.8472C18.5222 16.7012 16.6202 18.0344 14.4413 18.6037C14.3891 18.6172 14.3422 18.6376 14.2686 18.6632" fill="#FFAFCA"/>
</g>
</g>
<defs>
<clipPath id="clip0_225_539">
<rect width="24" height="20" fill="white"/>
</clipPath>
</defs>
</svg>
