<svg width="24" height="24" viewBox="0 0 24 24" fill="none" xmlns="http://www.w3.org/2000/svg">
<mask id="mask0_225_506" style="mask-type:luminance" maskUnits="userSpaceOnUse" x="1" y="0" width="21" height="24">
<path d="M21.848 0H1.71436V24H21.848V0Z" fill="white"/>
</mask>
<g mask="url(#mask0_225_506)">
<path d="M11.4962 8.16397C11.4962 9.61868 11.4929 11.0734 11.5 12.5259C11.5098 12.6202 11.4894 12.7151 11.4419 12.7971C11.3944 12.879 11.3222 12.9439 11.2356 12.9823C11.0185 13.0985 10.8472 13.2848 10.7495 13.5109C10.6517 13.7369 10.6334 13.9893 10.6974 14.2271C10.7589 14.4674 10.8987 14.6804 11.0947 14.8325C11.2906 14.9847 11.5316 15.0672 11.7797 15.0672C12.0278 15.0672 12.2688 14.9847 12.4648 14.8325C12.6608 14.6804 12.8005 14.4674 12.862 14.2271C12.9257 13.9891 12.9069 13.7365 12.8087 13.5106C12.7104 13.2847 12.5386 13.0986 12.3212 12.9828C12.2378 12.9469 12.1678 12.8859 12.1208 12.8083C12.0738 12.7307 12.0522 12.6404 12.0589 12.5499C12.064 9.61686 12.0651 6.68381 12.0622 3.75076C12.0622 3.70278 12.0458 3.64171 12.0682 3.609C12.1227 3.52231 12.1887 3.39363 12.2672 3.37945C12.323 3.37752 12.3786 3.38669 12.4308 3.40644C12.4831 3.42619 12.5309 3.45612 12.5714 3.4945C12.641 3.58175 12.6949 3.68046 12.7306 3.7862C14.422 7.16344 16.1148 10.5398 17.809 13.9152C17.8663 14.0133 17.8961 14.125 17.8953 14.2386C17.8946 14.3522 17.8632 14.4635 17.8047 14.5608C17.1831 15.7767 16.5741 16.9969 15.9672 18.2232C15.9438 18.2892 15.8988 18.3454 15.8393 18.3826C15.7799 18.4197 15.7097 18.4356 15.64 18.4276C13.0614 18.4218 10.483 18.4218 7.90468 18.4276C7.83918 18.436 7.77279 18.422 7.71621 18.3879C7.65963 18.3539 7.61616 18.3018 7.5928 18.2401C6.96977 16.9809 6.34092 15.7245 5.70625 14.4708C5.66486 14.3991 5.64307 14.3178 5.64307 14.235C5.64307 14.1522 5.66486 14.0709 5.70625 13.9992C7.44413 10.539 9.17873 7.0773 10.9101 3.61391C10.9913 3.45033 11.0829 3.31457 11.2917 3.36964C11.4913 3.42416 11.494 3.58773 11.494 3.75403C11.494 5.22474 11.494 6.69526 11.494 8.1656" fill="#4AC7E6"/>
<path d="M21.029 9.76967C21.204 9.76967 21.3719 9.76586 21.5393 9.76967C21.5799 9.7652 21.6209 9.76988 21.6593 9.78335C21.6978 9.79683 21.7328 9.81875 21.7616 9.84753C21.7905 9.8763 21.8126 9.91118 21.8262 9.94961C21.8398 9.98803 21.8446 10.029 21.8403 10.0695C21.8403 10.6148 21.8441 11.1567 21.8403 11.7004C21.8403 11.9054 21.7176 12.0008 21.5132 12.0008C20.9848 12.0008 20.4559 12.0008 19.927 12.0008C19.8849 12.0067 19.8419 12.0028 19.8014 11.9896C19.7609 11.9764 19.7239 11.9541 19.6933 11.9245C19.6627 11.8948 19.6393 11.8586 19.6248 11.8185C19.6103 11.7785 19.6052 11.7356 19.6097 11.6933C19.6097 11.1578 19.6097 10.6219 19.6097 10.0864C19.6045 10.0443 19.6089 10.0015 19.6225 9.96126C19.636 9.92101 19.6585 9.88434 19.6882 9.85396C19.7179 9.82359 19.7541 9.80028 19.794 9.78579C19.8339 9.77129 19.8766 9.76597 19.9189 9.77022C20.0786 9.76531 20.2384 9.77022 20.4368 9.77022C20.3954 7.83197 19.6876 5.96716 18.4325 4.48953C17.0391 2.8113 15.0562 1.73008 12.8907 1.46779C12.8907 1.64445 12.8907 1.78567 12.8907 1.92688C12.8957 1.96713 12.8915 2.008 12.8785 2.04641C12.8655 2.08483 12.8439 2.11978 12.8154 2.14865C12.7869 2.17751 12.7522 2.19954 12.714 2.21307C12.6757 2.2266 12.6349 2.23129 12.5946 2.22677C12.0494 2.22895 11.5041 2.22895 10.9589 2.22677C10.9186 2.23145 10.8778 2.22693 10.8395 2.21353C10.8012 2.20014 10.7665 2.17823 10.738 2.14945C10.7094 2.12068 10.6877 2.08579 10.6746 2.04742C10.6615 2.00906 10.6573 1.96821 10.6623 1.92797C10.6623 1.78676 10.6623 1.64499 10.6623 1.50105C8.62274 1.74119 6.7386 2.71001 5.35672 4.22915C3.97484 5.74828 3.18824 7.71548 3.14173 9.76858C3.29713 9.76858 3.45416 9.76367 3.61064 9.76858C3.85273 9.77785 3.94324 9.86727 3.94488 10.1077C3.94851 10.6275 3.94851 11.1471 3.94488 11.6665C3.94488 11.9015 3.84455 11.997 3.60464 11.9986C3.08394 12.0024 2.56323 11.9986 2.04307 11.9986C1.99908 12.0052 1.95416 12.0016 1.91181 11.988C1.86946 11.9744 1.83082 11.9512 1.7989 11.9202C1.76698 11.8893 1.74264 11.8513 1.72777 11.8094C1.7129 11.7675 1.70792 11.7227 1.71319 11.6785C1.71319 11.1507 1.71319 10.6235 1.71319 10.0973C1.70704 10.0529 1.71126 10.0077 1.72552 9.96524C1.73979 9.92274 1.76371 9.88413 1.79541 9.85243C1.8271 9.82073 1.86572 9.79681 1.90821 9.78255C1.95071 9.76828 1.99594 9.76406 2.04034 9.77022C2.2001 9.77022 2.35985 9.77022 2.52779 9.77022C2.83022 5.80084 4.80509 3.01773 8.45241 1.4209H3.9138C3.84452 1.65938 3.69779 1.868 3.49677 2.01383C3.29575 2.15966 3.05189 2.23439 2.80368 2.22622C2.54511 2.22532 2.29522 2.13289 2.0983 1.96531C1.90139 1.79774 1.77017 1.56585 1.72791 1.31076C1.68098 1.0485 1.72974 0.778102 1.86533 0.548757C2.00091 0.319411 2.21432 0.146352 2.46672 0.0610565C2.71443 -0.0275307 2.98589 -0.0230587 3.23054 0.0736396C3.4752 0.170338 3.67636 0.352669 3.79657 0.586672C3.82809 0.673249 3.88906 0.74598 3.96881 0.792132C4.04855 0.838285 4.14199 0.854918 4.23276 0.83912C6.27525 0.831486 8.31773 0.834213 10.3602 0.834213H10.6661C10.6661 0.647194 10.6661 0.489618 10.6661 0.331498C10.6589 0.287874 10.662 0.243178 10.6752 0.20098C10.6884 0.158782 10.7113 0.120252 10.742 0.0884656C10.7727 0.0566798 10.8105 0.0325197 10.8522 0.0179148C10.8939 0.00330989 10.9385 -0.00133499 10.9823 0.00435112C11.5108 0.00435112 12.0395 0.00435112 12.5684 0.00435112C12.6122 -0.00206417 12.6569 0.00184688 12.699 0.0157722C12.741 0.0296976 12.7792 0.0532517 12.8105 0.0845554C12.8418 0.115859 12.8653 0.154046 12.8793 0.196069C12.8932 0.238092 12.8971 0.282788 12.8907 0.32659C12.8907 0.484711 12.8907 0.642832 12.8907 0.81731C12.9915 0.822762 13.069 0.830396 13.1464 0.830396C15.2369 0.830396 17.327 0.831486 19.4167 0.833667C19.4811 0.844089 19.5471 0.831057 19.6028 0.79694C19.6584 0.762823 19.6999 0.709883 19.7199 0.647739C19.8238 0.415097 20.0055 0.225908 20.2337 0.112677C20.462 -0.000555038 20.7225 -0.0307599 20.9706 0.0272514C21.1563 0.0680832 21.3285 0.155651 21.4709 0.281657C21.6133 0.407663 21.7211 0.567934 21.7842 0.747285C21.8473 0.926636 21.8636 1.11913 21.8314 1.30652C21.7993 1.49391 21.7199 1.67 21.6006 1.8181C21.4814 1.9662 21.3264 2.0814 21.1501 2.1528C20.9739 2.22419 20.7824 2.24941 20.5937 2.22607C20.405 2.20273 20.2254 2.13159 20.0719 2.01941C19.9184 1.90722 19.7961 1.7577 19.7166 1.58502C19.6899 1.53049 19.667 1.46888 19.6413 1.4089H15.0716C18.7433 3.00756 20.7122 5.7823 21.0263 9.77022" fill="#4AC7E6"/>
<path d="M11.7803 21.2117H7.17026C6.82512 21.2117 6.74279 21.1315 6.7417 20.7929C6.7417 20.3136 6.7417 19.8344 6.7417 19.3551C6.7417 19.0743 6.83548 18.98 7.11792 18.9794C10.2233 18.9794 13.3288 18.9794 16.4345 18.9794C16.7273 18.9794 16.8134 19.0732 16.8162 19.3753C16.8184 19.8544 16.8184 20.3336 16.8162 20.8131C16.8162 21.1228 16.7257 21.2111 16.4154 21.2117C14.8706 21.2117 13.3252 21.2117 11.7803 21.2117Z" fill="#4AC7E6"/>
<path d="M15.9676 21.7918C15.9676 22.4461 15.9676 23.0846 15.9676 23.7225C15.9697 23.7589 15.964 23.7952 15.9511 23.8292C15.9381 23.8633 15.9181 23.8941 15.8923 23.9199C15.8666 23.9456 15.8357 23.9656 15.8017 23.9786C15.7677 23.9916 15.7313 23.9972 15.695 23.9952C15.6312 23.9995 15.5669 23.9952 15.5031 23.9952H8.0545C7.63467 23.9952 7.58941 23.9494 7.58887 23.5252C7.58887 22.9516 7.58887 22.3774 7.58887 21.7875L15.9676 21.7918Z" fill="#4AC7E6"/>
</g>
</svg>
