<svg width="24" height="26" viewBox="0 0 24 26" fill="none" xmlns="http://www.w3.org/2000/svg">
<mask id="mask0_225_515" style="mask-type:luminance" maskUnits="userSpaceOnUse" x="3" y="1" width="17" height="25">
<path d="M19.9602 1.10675H3.42871V25.1068H19.9602V1.10675Z" fill="white"/>
</mask>
<g mask="url(#mask0_225_515)">
<path d="M3.4288 8.58012H6.57732C6.57732 8.47568 6.57732 8.38938 6.57732 8.30258C6.59154 7.39299 6.54741 6.4785 6.63224 5.57577C6.7803 4.38006 7.34659 3.27528 8.23088 2.45694C9.11516 1.63861 10.2604 1.15948 11.464 1.10435C12.6676 1.04922 13.8519 1.42164 14.8073 2.15571C15.7627 2.88978 16.4276 3.93817 16.6843 5.11533C16.7652 5.53316 16.8057 5.95779 16.8055 6.38337C16.8246 7.1032 16.8108 7.82352 16.8108 8.5708H19.9599V8.8606C19.9599 13.6987 19.9599 18.5368 19.9599 23.3748C19.9826 23.6071 19.9537 23.8415 19.8753 24.0614C19.7969 24.2812 19.6709 24.481 19.5064 24.6464C19.3418 24.8119 19.1427 24.9389 18.9233 25.0185C18.7039 25.0981 18.4696 25.1282 18.2373 25.1068H5.15139C4.91902 25.128 4.68483 25.0977 4.46552 25.018C4.24621 24.9383 4.0472 24.8111 3.88267 24.6457C3.71815 24.4802 3.59216 24.2805 3.51371 24.0607C3.43525 23.841 3.40626 23.6066 3.4288 23.3744C3.4288 18.5363 3.4288 13.6982 3.4288 8.86011V8.57865M6.18406 16.8322C6.18232 17.9234 6.5046 18.9905 7.11004 19.8984C7.71548 20.8062 8.57683 21.5139 9.58491 21.9316C10.593 22.3494 11.7024 22.4584 12.7725 22.245C13.8427 22.0315 14.8253 21.5052 15.596 20.7326C16.3666 19.96 16.8905 18.976 17.1013 17.9054C17.3121 16.8347 17.2002 15.7256 16.78 14.7186C16.3597 13.7115 15.6499 12.852 14.7405 12.2488C13.8312 11.6456 12.7632 11.326 11.672 11.3305C10.2159 11.3362 8.82125 11.9181 7.79289 12.949C6.76454 13.9799 6.18612 15.376 6.18406 16.8322ZM15.9817 8.56394C15.9817 7.56903 16.0582 6.5952 15.966 5.63804C15.8371 4.62784 15.354 3.69613 14.6027 3.00867C13.8513 2.32122 12.8804 1.92261 11.8628 1.88378C10.8452 1.84494 9.84673 2.1684 9.04518 2.79659C8.24363 3.42479 7.69093 4.31698 7.48544 5.31441C7.3772 6.38086 7.33953 7.4533 7.37266 8.52471C7.37266 8.53697 7.39031 8.55021 7.4011 8.56394H15.9817Z" fill="#F5834A"/>
<path d="M11.8727 18.9965C12.6226 18.2588 13.2446 17.4016 13.7135 16.46C12.7704 16.9111 11.925 17.543 11.2255 18.3199C11.0994 16.5933 11.8232 15.2483 13.3717 14.8781C14.029 14.7142 14.712 14.6809 15.3821 14.78C15.5193 15.6954 15.3872 16.6309 15.0021 17.4725C14.7905 17.8733 14.4813 18.2142 14.1031 18.4638C13.7249 18.7135 13.2898 18.8638 12.8382 18.9009C12.5205 18.9539 12.1954 18.9656 11.8737 18.996" fill="#F5834A"/>
<path d="M10.4229 17.3323L9.47063 16.7306L9.39169 16.7959C9.66628 17.2534 9.93107 17.7167 10.2179 18.1688C10.3071 18.2699 10.3702 18.3914 10.4015 18.5225C10.4328 18.6537 10.4314 18.7905 10.3974 18.921C9.86217 18.929 9.34075 18.7511 8.92201 18.4177C8.50328 18.0843 8.21315 17.6159 8.1011 17.0925C8.01634 16.5691 7.97647 16.0394 7.98194 15.5092C7.979 15.442 8.06628 15.313 8.12169 15.3086C8.99501 15.1661 9.89058 15.3381 10.6489 15.7941C10.6832 15.8094 10.7138 15.8317 10.7388 15.8597C10.7638 15.8877 10.7826 15.9207 10.7939 15.9564C10.8052 15.9922 10.8088 16.03 10.8044 16.0673C10.8001 16.1045 10.7878 16.1404 10.7686 16.1726C10.6318 16.5473 10.5376 16.9376 10.4224 17.3338" fill="#F5834A"/>
</g>
</svg>
