<svg width="24" height="25" viewBox="0 0 24 25" fill="none" xmlns="http://www.w3.org/2000/svg">
<g clip-path="url(#clip0_225_546)">
<mask id="mask0_225_546" style="mask-type:luminance" maskUnits="userSpaceOnUse" x="0" y="0" width="24" height="25">
<path d="M24 0.280518H0V24.2805H24V0.280518Z" fill="white"/>
</mask>
<g mask="url(#mask0_225_546)">
<path d="M11.2105 0.280518H12.1682C13.3195 0.534803 14.4452 0.888991 15.5318 1.33885C15.4096 1.38773 15.3459 1.41574 15.28 1.4388C13.8351 1.94298 12.3822 2.42739 10.9458 2.95518C8.8493 3.72215 6.79425 4.59268 4.78858 5.56338C4.40931 5.72831 4.08689 5.9964 3.85997 6.3355C3.63306 6.6746 3.51129 7.07031 3.50927 7.47519C3.49012 7.93543 3.45294 8.39512 3.44167 8.85591C3.4135 10.1209 3.39153 11.3859 3.37576 12.651C3.37125 12.9898 3.54476 13.0777 3.85346 12.902C4.06696 12.7789 4.2861 12.663 4.49058 12.5274C4.6855 12.3978 4.81506 12.4351 4.95195 12.6153C5.29558 13.0667 5.64897 13.5108 6.01213 13.9476C6.07522 14.0229 6.23746 14.0992 6.30619 14.0707C6.39463 14.0344 6.44702 13.8949 6.49547 13.7911C6.50862 13.73 6.50996 13.6671 6.49941 13.6055C6.51631 11.9029 6.52307 10.2004 6.55574 8.49782C6.54498 8.09216 6.6612 7.69293 6.88894 7.35327C7.11667 7.0136 7.44512 6.74962 7.83055 6.59645C11.2794 5.09813 14.8087 3.7825 18.4031 2.65531C18.4827 2.62217 18.5716 2.61674 18.6549 2.63993C19.6316 3.0682 20.58 3.55538 21.4946 4.09864C22.1036 4.506 22.5975 5.05623 22.9311 5.69861C23.2646 6.341 23.427 7.05489 23.4032 7.77451C23.4364 9.91644 23.4437 12.054 23.4595 14.1937C23.4595 14.2442 23.4544 14.2948 23.4499 14.3876C22.1338 13.208 20.3916 12.5855 18.6053 12.6565C17.7259 12.6811 16.8602 12.8755 16.0583 13.2282C15.2563 13.581 14.534 14.0851 13.9331 14.7116C12.7449 15.9368 12.0795 17.5568 12.0719 19.2429C12.0642 20.929 12.715 22.5547 13.892 23.7901C13.3117 24.0673 12.6809 24.2298 12.0359 24.2681C11.3909 24.3065 10.7445 24.22 10.134 24.0136C7.58413 23.1595 5.09994 22.1293 2.70033 20.9309C1.89464 20.5739 1.21306 19.9959 0.73886 19.2674C0.264664 18.5389 0.0183993 17.6915 0.0301589 16.8288C-0.0137806 13.7917 -0.00476738 10.7529 0.0301589 7.71574C0.0144763 6.95612 0.2044 6.20587 0.5808 5.54059C0.957199 4.8753 1.50678 4.31847 2.17418 3.92618C2.89306 3.50359 3.64085 3.12961 4.41228 2.80689C6.59205 1.75871 8.86816 0.912854 11.2105 0.280518Z" fill="#FF0000"/>
<path d="M24.0003 19.2623C24.0001 20.2544 23.6982 21.2241 23.1327 22.0489C22.5673 22.8737 21.7637 23.5165 20.8236 23.896C19.8835 24.2756 18.849 24.3749 17.851 24.1813C16.853 23.9878 15.9363 23.5101 15.2167 22.8086C14.4972 22.1072 14.0071 21.2135 13.8085 20.2405C13.6098 19.2676 13.7116 18.259 14.1008 17.3424C14.49 16.4258 15.1492 15.6423 15.9951 15.0909C16.8411 14.5395 17.8357 14.2451 18.8532 14.2448C20.2181 14.245 21.5271 14.7738 22.4922 15.7147C23.4574 16.6556 23.9999 17.9316 24.0003 19.2623ZM18.082 19.6622C17.739 19.3502 17.4117 19.0635 17.0968 18.7642C17.0147 18.6732 16.9147 18.5993 16.8027 18.5468C16.6906 18.4944 16.5689 18.4645 16.4448 18.4589C16.3207 18.4533 16.1966 18.4721 16.0801 18.5143C15.9636 18.5565 15.8571 18.6211 15.7667 18.7043C15.6771 18.7889 15.6063 18.8906 15.5587 19.003C15.5112 19.1155 15.488 19.2363 15.4905 19.3579C15.4931 19.4795 15.5213 19.5993 15.5735 19.7097C15.6257 19.8202 15.7007 19.919 15.7938 19.9999C16.3049 20.5173 16.8183 21.0328 17.3339 21.5465C17.4192 21.6488 17.5268 21.7312 17.6489 21.7879C17.771 21.8445 17.9046 21.8739 18.0398 21.8739C18.175 21.8739 18.3085 21.8445 18.4306 21.7879C18.5527 21.7312 18.6603 21.6488 18.7456 21.5465C19.1529 21.1374 19.5534 20.7227 19.9568 20.3091C20.5533 19.6984 21.1516 19.0893 21.7453 18.4759C21.8854 18.3449 21.9783 18.1733 22.0102 17.9867C22.0422 17.8 22.0115 17.6083 21.9228 17.4401C21.8452 17.2748 21.7133 17.1396 21.5481 17.0555C21.3828 16.9715 21.1936 16.9435 21.0102 16.976C20.7793 17.0283 20.568 17.1424 20.4001 17.3055C19.6069 18.0881 18.8363 18.8922 18.0826 19.6638" fill="#FF0000"/>
</g>
</g>
<defs>
<clipPath id="clip0_225_546">
<rect width="24" height="25" fill="white"/>
</clipPath>
</defs>
</svg>
