<svg width="24" height="24" viewBox="0 0 24 24" fill="none" xmlns="http://www.w3.org/2000/svg">
<g clip-path="url(#clip0_225_524)">
<mask id="mask0_225_524" style="mask-type:luminance" maskUnits="userSpaceOnUse" x="0" y="0" width="24" height="24">
<path d="M24 0.82605H0V23.2806H24V0.82605Z" fill="white"/>
</mask>
<g mask="url(#mask0_225_524)">
<path d="M10.185 0.838936C10.185 1.30999 10.185 1.75075 10.185 2.19152C10.185 2.85772 10.185 3.52448 10.185 4.19068C10.185 4.52715 10.323 4.66117 10.655 4.66229C11.5462 4.66491 12.4375 4.66491 13.3287 4.66229C13.6758 4.66229 13.8088 4.52771 13.8099 4.1761C13.8099 3.15998 13.8099 2.14386 13.8099 1.12773V0.847348C13.9013 0.838375 13.9658 0.826599 14.0297 0.826599C15.0125 0.826599 15.9954 0.826599 16.9782 0.826599C17.3405 0.826599 17.4869 0.969036 17.4869 1.32064C17.4869 3.91104 17.4869 6.50144 17.4869 9.09185C17.4869 9.13278 17.4818 9.17316 17.4785 9.23316H6.50635V8.97689C6.50635 6.45303 6.50635 3.92955 6.50635 1.40644C6.50635 0.945483 6.62355 0.82716 7.08058 0.826599C8.02193 0.826599 8.9631 0.826599 9.90408 0.826599C9.98539 0.826599 10.0678 0.833328 10.185 0.838936ZM10.5714 6.22629H8.75898V6.99455H10.5742L10.5714 6.22629ZM8.75898 8.3163H10.5675V7.5486H8.75898V8.3163Z" fill="#BBAFFF"/>
<path d="M18.9019 10.0536H21.4815C21.6979 10.0536 21.915 10.0496 22.1314 10.0536C22.1901 10.0477 22.2493 10.0547 22.3049 10.0741C22.3606 10.0935 22.4113 10.1248 22.4537 10.1658C22.496 10.2068 22.5289 10.2565 22.55 10.3115C22.5712 10.3665 22.5801 10.4255 22.5761 10.4842C22.5789 10.5257 22.5761 10.5672 22.5761 10.6093C22.5761 13.1515 22.5761 15.6927 22.5761 18.233V18.4573H12.416V10.0665H15.2541C15.2586 10.1612 15.2664 10.2493 15.2664 10.3379C15.2664 11.3211 15.2664 12.3043 15.2664 13.2876C15.2664 13.7861 15.3752 13.8966 15.8631 13.8966C16.7046 13.8966 17.5458 13.8966 18.3866 13.8966C18.7629 13.8966 18.8991 13.7603 18.8997 13.3851C18.8997 12.3757 18.8997 11.3677 18.8997 10.3609V10.0541M13.8314 16.2305H15.6455V15.4606H13.8314V16.2305ZM13.8314 17.5438H15.6461V16.7705H13.8314V17.5438Z" fill="#BBAFFF"/>
<path d="M5.09601 10.0536C5.09601 11.1678 5.09601 12.2406 5.09601 13.3162C5.09601 13.7799 5.20817 13.896 5.66576 13.8966C6.50729 13.8966 7.34845 13.8966 8.18924 13.8966C8.59468 13.8966 8.72814 13.7642 8.72927 13.356C8.73151 12.3645 8.73151 11.3738 8.72927 10.3839V10.0715H11.5825V18.4652H1.43248C1.42743 18.3777 1.41846 18.2902 1.41846 18.2028C1.41846 15.6781 1.41846 13.1535 1.41846 10.6289C1.41846 10.1691 1.5351 10.0542 1.99605 10.0542H5.09377L5.09601 10.0536ZM5.48855 15.4639H3.66267V16.2221H5.48799L5.48855 15.4639ZM5.48855 16.7789H3.65931V17.5388H5.48687L5.48855 16.7789Z" fill="#BBAFFF"/>
<path d="M12.005 21.6801H0.63248C0.0969414 21.6801 0.000488281 21.5853 0.000488281 21.0604C0.000488281 20.6269 0.000488281 20.194 0.000488281 19.7605C0.000488281 19.4302 0.13956 19.2934 0.469856 19.2811C0.536588 19.2811 0.60332 19.2811 0.670052 19.2811H23.3399C23.4398 19.2787 23.5398 19.2819 23.6394 19.2906C23.7332 19.2922 23.8226 19.3307 23.8882 19.3978C23.9538 19.4649 23.9903 19.5551 23.9898 19.6489C24.0033 20.1985 24.0027 20.7486 23.9898 21.2982C23.9904 21.3467 23.9815 21.3949 23.9634 21.4399C23.9454 21.485 23.9187 21.5261 23.8848 21.5608C23.8509 21.5955 23.8105 21.6233 23.7659 21.6424C23.7212 21.6615 23.6733 21.6716 23.6248 21.6722C23.5252 21.6804 23.4252 21.6829 23.3253 21.6795L12.005 21.6801Z" fill="#BBAFFF"/>
<path d="M7.91335 10.0698H5.91699V13.0851H7.91335V10.0698Z" fill="#BBAFFF"/>
<path d="M18.0856 10.062H16.0903V13.0846H18.0856V10.062Z" fill="#BBAFFF"/>
<path d="M12.9917 0.841187H11.0015V3.85198H12.9917V0.841187Z" fill="#BBAFFF"/>
<path d="M1.45126 22.4983H6.57337C6.5808 22.6343 6.5808 22.7706 6.57337 22.9066C6.54421 23.16 6.39728 23.2772 6.10175 23.2795C5.5107 23.284 4.91964 23.2795 4.32803 23.2795H2.07764C1.49331 23.2795 1.34359 23.0978 1.45126 22.4944" fill="#BBAFFF"/>
<path d="M14.5788 22.5038C14.5788 22.6008 14.5788 22.6827 14.5788 22.764C14.5732 23.1392 14.4403 23.2766 14.0651 23.2782C13.3159 23.2816 12.5662 23.2782 11.817 23.2782H10.0931C9.48751 23.2782 9.36751 23.1403 9.44041 22.5027L14.5788 22.5038Z" fill="#BBAFFF"/>
<path d="M17.4544 22.4932H22.5362C22.6831 23.0422 22.5076 23.2782 21.9625 23.2782H18.041C17.4903 23.2782 17.3271 23.064 17.4544 22.4932Z" fill="#BBAFFF"/>
</g>
</g>
<defs>
<clipPath id="clip0_225_524">
<rect width="24" height="24" fill="white"/>
</clipPath>
</defs>
</svg>
