<svg width="24" height="24" viewBox="0 0 24 24" fill="none" xmlns="http://www.w3.org/2000/svg">
<path d="M2.91658 19.8671C1.1975 17.9147 0.171908 15.4465 0 12.848C0.736169 12.848 1.43794 12.848 2.13971 12.848C2.3 12.8533 2.45835 12.8116 2.59533 12.728C2.73231 12.6444 2.84196 12.5225 2.91084 12.3773C2.97821 12.2569 3.00985 12.1196 3.00202 11.9818C2.9942 11.8439 2.94725 11.7111 2.8667 11.5991C2.78283 11.469 2.66551 11.3639 2.52708 11.2949C2.38865 11.2259 2.23423 11.1956 2.08008 11.2072C1.4001 11.2135 0.720689 11.2072 0.00229336 11.2072C0.190248 8.578 1.22552 6.08127 2.95213 4.0932C3.44005 4.58574 3.90559 5.05759 4.37401 5.53117C4.44018 5.62405 4.52499 5.70202 4.62301 5.76007C4.72104 5.81811 4.8301 5.85495 4.94318 5.86822C5.05626 5.88148 5.17085 5.87087 5.2796 5.83707C5.38834 5.80327 5.48882 5.74704 5.57459 5.67198C5.66389 5.58739 5.73381 5.48439 5.77954 5.37008C5.82527 5.25576 5.84571 5.13287 5.83944 5.00987C5.83317 4.88687 5.80034 4.7667 5.74323 4.65766C5.68613 4.54861 5.60609 4.45329 5.50865 4.37827C5.04539 3.91159 4.57583 3.44836 4.08333 2.96157C6.06433 1.22642 8.55603 0.186611 11.1801 0C11.1801 0.613808 11.1801 1.2029 11.1801 1.792C11.1801 1.92878 11.1744 2.06557 11.183 2.20178C11.1923 2.41434 11.2816 2.61548 11.4329 2.76475C11.5841 2.91402 11.7862 3.00035 11.9983 3.00639C12.2109 3.00292 12.4139 2.91729 12.5651 2.76738C12.7163 2.61747 12.8038 2.41485 12.8096 2.20178C12.8262 1.5759 12.8142 0.949448 12.8165 0.322996C12.8165 0.222994 12.8262 0.123566 12.8325 0.00517254C15.4513 0.194029 17.9374 1.23308 19.9144 2.96501C19.4374 3.43744 18.9868 3.88458 18.5344 4.33229C18.452 4.40411 18.385 4.49193 18.3374 4.59043C18.2899 4.68893 18.2627 4.79607 18.2576 4.90538C18.2525 5.0147 18.2696 5.12391 18.3077 5.22644C18.3459 5.32896 18.4044 5.42266 18.4797 5.50189C18.5551 5.58111 18.6456 5.64422 18.7459 5.68738C18.8463 5.73055 18.9543 5.75289 19.0635 5.75304C19.1725 5.7532 19.2806 5.73118 19.3811 5.6883C19.4815 5.64543 19.5722 5.58259 19.6478 5.50358C19.8898 5.27944 20.118 5.04093 20.3485 4.80471C20.5789 4.5685 20.7876 4.34493 21.0364 4.08516C22.7725 6.07358 23.8131 8.57601 24 11.2118H22.4233C22.2754 11.2118 22.1275 11.2066 21.9801 11.2118C21.8732 11.2122 21.7674 11.2337 21.6687 11.2751C21.5701 11.3165 21.4805 11.377 21.4052 11.4531C21.3299 11.5292 21.2702 11.6195 21.2297 11.7187C21.1891 11.8179 21.1685 11.9241 21.1689 12.0313C21.1693 12.1385 21.1908 12.2446 21.2321 12.3435C21.2734 12.4424 21.3337 12.5322 21.4097 12.6077C21.4856 12.6832 21.5756 12.743 21.6746 12.7836C21.7736 12.8243 21.8795 12.845 21.9864 12.8446C22.6171 12.8584 23.2536 12.848 23.9358 12.848C23.7413 15.4625 22.7056 17.9432 20.9842 19.9171C20.5078 19.4286 20.0537 18.9556 19.591 18.4918C19.4847 18.3707 19.3427 18.2865 19.1855 18.2515C19.0285 18.2165 18.8643 18.2324 18.7167 18.297C18.5897 18.3419 18.4763 18.4188 18.3873 18.5201C18.2984 18.6215 18.2368 18.7441 18.2086 18.8761C18.1803 19.0081 18.1863 19.1452 18.226 19.2742C18.2657 19.4032 18.3377 19.5199 18.4352 19.6131C18.8062 20.0154 19.2028 20.3896 19.5876 20.7769C19.6661 20.8562 19.7412 20.9396 19.8468 21.0511C17.8681 22.7838 15.378 23.8195 12.7568 24C12.7568 23.3764 12.7597 22.7879 12.7568 22.1988C12.7636 22.0403 12.748 21.8816 12.7104 21.7275C12.6543 21.5462 12.5354 21.391 12.3752 21.2898C12.2149 21.1887 12.0239 21.1482 11.8366 21.1758C11.637 21.2036 11.4543 21.3035 11.3229 21.4567C11.1915 21.6099 11.1203 21.806 11.1228 22.008C11.109 22.5316 11.1188 23.0557 11.1188 23.5793C11.1188 23.7029 11.1188 23.8259 11.1188 23.9977C8.53541 23.8003 6.08352 22.7766 4.12404 21.0775L5.10273 20.058C5.28391 19.8689 5.47081 19.6855 5.64339 19.4895C5.78271 19.3446 5.86151 19.1517 5.86364 18.9504C5.86576 18.7492 5.79108 18.5547 5.65486 18.4068C5.503 18.2499 5.29646 18.158 5.07853 18.1504C4.8606 18.1428 4.64819 18.22 4.48581 18.366C3.96981 18.8441 3.46641 19.3395 2.91773 19.866M9.91535 12.8486V12.8543C10.4601 12.8543 11.0047 12.8227 11.5488 12.863C11.8152 12.8796 12.0816 12.8323 12.3261 12.7251C12.5706 12.6178 12.7861 12.4537 12.9546 12.2463C13.7217 11.4417 14.4975 10.6405 15.2738 9.84276C15.7491 9.35425 16.2484 8.88814 16.7071 8.38526C16.8009 8.2887 16.8686 8.16973 16.9037 8.03962C16.9388 7.90951 16.9401 7.77256 16.9076 7.64178C16.8751 7.51099 16.8098 7.3907 16.718 7.29229C16.6261 7.19389 16.5106 7.12063 16.3826 7.07948C16.2211 7.02083 16.0451 7.01529 15.8801 7.06365C15.7152 7.11201 15.5699 7.21176 15.4653 7.34845C14.2733 8.5663 13.0808 9.78414 11.8756 10.9888C11.7411 11.1144 11.5667 11.1887 11.3831 11.1985C10.2485 11.2169 9.11381 11.2049 7.9786 11.21C7.86963 11.2068 7.76111 11.2254 7.65945 11.2649C7.55779 11.3044 7.46504 11.3639 7.38668 11.4398C7.30831 11.5158 7.24593 11.6068 7.20319 11.7073C7.16045 11.8078 7.13824 11.9159 7.13786 12.0252C7.13747 12.1345 7.15893 12.2427 7.20096 12.3436C7.24299 12.4444 7.30474 12.5358 7.38257 12.6123C7.46039 12.6889 7.55273 12.749 7.65411 12.7892C7.75549 12.8294 7.86387 12.8488 7.97287 12.8463C8.6196 12.8538 9.26632 12.8463 9.91363 12.8463" fill="#FFD539"/>
</svg>
