<svg xmlns="http://www.w3.org/2000/svg" width="55.904" height="70.461" viewBox="0 0 55.904 70.461">
  <g id="Group_5428" data-name="Group 5428" transform="translate(17628.002 -7838)">
    <path id="Path_99" data-name="Path 99" d="M432.315,199.838v-7.417l25.829,2.032q.175-.536.349-1.074l-22.929-11.63,3.615-6.515c4.53,3.453,8.911,6.781,13.28,10.123,2.292,1.753,4.592,3.5,6.842,5.3,4.1,3.294,4.218,7.545.126,10.939-3.7,3.069-7.594,5.9-11.405,8.838-2.781,2.141-5.566,4.276-8.534,6.556l-4.3-6.567,22.6-11.381-.2-.879-25.263,1.673" transform="translate(-18060.316 7677.127)" fill="#ffcb08"/>
    <path id="Path_100" data-name="Path 100" d="M490.961,230.028l-6.238,3.6-11.64-22.983-1.086.333c.691,8.542,1.383,17.084,2.091,25.837h-7.493c.6-8.514,1.185-16.865,1.772-25.215l-.869-.325c-4.042,7.314-7.451,14.98-11.526,22.591l-6.475-4.184c2.407-3.18,4.65-6.167,6.918-9.134,2.727-3.568,5.442-7.148,8.227-10.672,3.206-4.057,7.935-4.225,11.034-.278,4.9,6.244,9.673,12.594,14.485,18.908a11.816,11.816,0,0,1,.8,1.519" transform="translate(-18063.305 7671.645)" fill="#ec008c"/>
    <path id="Path_101" data-name="Path 101" d="M449.433,165.116l6.552-4.373c3.888,7.729,7.641,15.187,11.394,22.646l.958-.216-1.743-25.3c2.172,0,4.288-.107,6.372.094.4.039,1.015,1.313.972,1.982-.286,4.475-.73,8.94-1.108,13.41a72.2,72.2,0,0,0-.343,10.611c4.6-7.258,8.13-15.017,12.273-22.8l6.436,3.613c-3.384,4.454-6.614,8.711-9.851,12.961-1.943,2.55-3.857,5.122-5.857,7.625-2.52,3.155-7.2,3.725-9.718.68-5.563-6.714-10.758-13.735-16.339-20.935" transform="translate(-18063.295 7680.152)" fill="#0095da"/>
  </g>
</svg>
