<svg width="19" height="18" viewBox="0 0 19 18" fill="none" xmlns="http://www.w3.org/2000/svg">
<path d="M4.14772 17.641C3.9395 17.641 3.73129 17.572 3.54621 17.434C3.17604 17.158 3.03723 16.721 3.17604 16.284L4.77237 11.408C4.84177 11.201 4.77237 10.948 4.58729 10.833L0.422963 7.82C0.0528005 7.544 -0.0860102 7.107 0.0528006 6.67C0.191611 6.233 0.584909 5.957 1.02448 5.957H6.18361C6.41496 5.957 6.62318 5.819 6.69258 5.589L8.28891 0.713C8.42772 0.276 8.82102 0 9.26058 0C9.70015 0 10.0934 0.276 10.2323 0.713L11.8054 5.612C11.8749 5.819 12.0831 5.98 12.3144 5.98H17.4736C17.9363 5.98 18.3064 6.256 18.4452 6.693C18.584 7.13 18.4452 7.567 18.0751 7.843L13.9107 10.856C13.7257 10.994 13.6563 11.224 13.7257 11.431L15.322 16.307C15.4608 16.744 15.322 17.181 14.9518 17.457C14.5817 17.733 14.119 17.733 13.7488 17.457L9.58448 14.444C9.3994 14.306 9.14491 14.306 8.95983 14.444L4.7955 17.457C4.56415 17.572 4.35594 17.641 4.14772 17.641Z" fill="black"/>
</svg>
