<svg width="44" height="48" viewBox="0 0 44 48" fill="none" xmlns="http://www.w3.org/2000/svg">
<mask id="mask0_0_94" style="mask-type:luminance" maskUnits="userSpaceOnUse" x="6" y="2" width="31" height="45">
<path d="M36.5937 2.04321H6.28601V46.351H36.5937V2.04321Z" fill="white"/>
</mask>
<g mask="url(#mask0_0_94)">
<path d="M6.28618 15.8401H12.0585C12.0585 15.6473 12.0585 15.488 12.0585 15.3277C12.0845 13.6485 12.0036 11.9602 12.1592 10.2936C12.4306 8.08615 13.4688 6.04655 15.09 4.53577C16.7112 3.02501 18.8108 2.14046 21.0174 2.03868C23.224 1.93691 25.3952 2.62445 27.1468 3.97966C28.8983 5.33486 30.1173 7.27035 30.5879 9.44357C30.7362 10.2149 30.8105 10.9989 30.8101 11.7846C30.8451 13.1135 30.8198 14.4433 30.8198 15.8229H36.5932V16.3579C36.5932 25.2898 36.5932 34.2217 36.5932 43.1534C36.6348 43.5822 36.5818 44.015 36.4381 44.4209C36.2944 44.8267 36.0634 45.1956 35.7618 45.5009C35.46 45.8065 35.095 46.0409 34.6928 46.1879C34.2905 46.3348 33.861 46.3904 33.4351 46.3509H9.44426C9.01825 46.39 8.5889 46.3341 8.18683 46.187C7.78476 46.0398 7.41991 45.805 7.11827 45.4996C6.81665 45.1941 6.58567 44.8254 6.44185 44.4196C6.298 44.014 6.24486 43.5813 6.28618 43.1526C6.28618 34.2207 6.28618 25.2889 6.28618 16.357V15.8374M11.3375 31.0747C11.3343 33.0892 11.9251 35.0593 13.0351 36.7354C14.1451 38.4113 15.7242 39.7179 17.5724 40.489C19.4205 41.2603 21.4544 41.4615 23.4163 41.0676C25.3783 40.6734 27.1798 39.7018 28.5927 38.2754C30.0055 36.8491 30.966 35.0325 31.3524 33.056C31.7389 31.0793 31.5337 29.0318 30.7634 27.1727C29.9928 25.3134 28.6915 23.7267 27.0243 22.6131C25.3572 21.4995 23.3992 20.9094 21.3987 20.9177C18.7292 20.9283 16.1723 22.0025 14.287 23.9057C12.4017 25.8089 11.3413 28.3863 11.3375 31.0747ZM29.2998 15.8102C29.2998 13.9735 29.4401 12.1756 29.271 10.4086C29.0347 8.54359 28.149 6.82351 26.7717 5.55435C25.3941 4.28521 23.6141 3.54932 21.7485 3.47763C19.8829 3.40593 18.0524 4.00308 16.5829 5.16282C15.1134 6.32257 14.1001 7.96969 13.7234 9.8111C13.5249 11.7799 13.4559 13.7598 13.5166 15.7378C13.5166 15.7604 13.5489 15.7849 13.5687 15.8102H29.2998Z" fill="#656565"/>
<path d="M21.7667 35.0703C23.1415 33.7084 24.2819 32.1259 25.1415 30.3875C23.4125 31.2203 21.8626 32.3869 20.5802 33.8212C20.349 30.6336 21.676 28.1505 24.5149 27.4671C25.7199 27.1645 26.9721 27.103 28.2006 27.286C28.4522 28.976 28.21 30.703 27.504 32.2568C27.116 32.9967 26.5492 33.626 25.8558 34.0868C25.1624 34.5478 24.3647 34.8253 23.5368 34.8938C22.9544 34.9916 22.3583 35.0132 21.7686 35.0694" fill="#656565"/>
<path d="M19.1087 31.998L17.3629 30.8872L17.2181 31.0077C17.7216 31.8523 18.207 32.7077 18.7329 33.5423C18.8964 33.729 19.0121 33.9533 19.0695 34.1953C19.1268 34.4375 19.1243 34.6901 19.0619 34.931C18.0807 34.9458 17.1248 34.6173 16.3571 34.0018C15.5894 33.3863 15.0575 32.5216 14.8521 31.5553C14.6967 30.589 14.6236 29.6111 14.6336 28.6323C14.6282 28.5082 14.7882 28.2701 14.8898 28.2619C16.4909 27.9989 18.1328 28.3164 19.523 29.1582C19.5859 29.1865 19.642 29.2277 19.6878 29.2794C19.7337 29.331 19.7681 29.392 19.7889 29.4579C19.8096 29.524 19.8162 29.5938 19.8081 29.6626C19.8002 29.7313 19.7777 29.7976 19.7425 29.857C19.4917 30.5488 19.319 31.2693 19.1078 32.0008" fill="#656565"/>
</g>
</svg>
