<svg width="48" height="48" viewBox="0 0 48 48" fill="none" xmlns="http://www.w3.org/2000/svg">
<mask id="mask0_0_70" style="mask-type:luminance" maskUnits="userSpaceOnUse" x="3" y="0" width="41" height="48">
<path d="M43.696 0H3.42871V48H43.696V0Z" fill="white"/>
</mask>
<g mask="url(#mask0_0_70)">
<path d="M22.9924 16.3279C22.9924 19.2374 22.9858 22.1468 23 25.0518C23.0196 25.2404 22.9788 25.4302 22.8838 25.5942C22.7888 25.758 22.6444 25.8878 22.4712 25.9646C22.037 26.197 21.6944 26.5696 21.499 27.0218C21.3034 27.4738 21.2668 27.9786 21.3948 28.4542C21.5178 28.9348 21.7974 29.3608 22.1894 29.665C22.5812 29.9694 23.0632 30.1344 23.5594 30.1344C24.0556 30.1344 24.5376 29.9694 24.9296 29.665C25.3216 29.3608 25.601 28.9348 25.724 28.4542C25.8514 27.9782 25.8138 27.473 25.6174 27.0212C25.4208 26.5694 25.0772 26.1972 24.6424 25.9656C24.4756 25.8938 24.3356 25.7718 24.2416 25.6166C24.1476 25.4614 24.1044 25.2808 24.1178 25.0998C24.128 19.2337 24.1302 13.3676 24.1244 7.50152C24.1244 7.40556 24.0916 7.28342 24.1364 7.218C24.2454 7.04462 24.3774 6.78726 24.5344 6.7589C24.646 6.75504 24.7572 6.77338 24.8616 6.81288C24.9662 6.85238 25.0618 6.91224 25.1428 6.989C25.282 7.1635 25.3898 7.36092 25.4612 7.5724C28.844 14.3269 32.2296 21.0796 35.618 27.8304C35.7326 28.0266 35.7922 28.25 35.7906 28.4772C35.7892 28.7044 35.7264 28.927 35.6094 29.1216C34.3662 31.5534 33.1482 33.9938 31.9344 36.4464C31.8876 36.5784 31.7976 36.6908 31.6786 36.7652C31.5598 36.8394 31.4194 36.8712 31.28 36.8552C26.1228 36.8436 20.966 36.8436 15.8094 36.8552C15.6784 36.872 15.5456 36.844 15.4324 36.7758C15.3193 36.7078 15.2323 36.6036 15.1856 36.4802C13.9395 33.9618 12.6818 31.449 11.4125 28.9416C11.3297 28.7982 11.2861 28.6356 11.2861 28.47C11.2861 28.3044 11.3297 28.1418 11.4125 27.9984C14.8883 21.078 18.3575 14.1546 21.8202 7.22782C21.9826 6.90066 22.1658 6.62914 22.5834 6.73928C22.9826 6.84832 22.988 7.17546 22.988 7.50806C22.988 10.4495 22.988 13.3905 22.988 16.3312" fill="#656565"/>
<path d="M42.058 19.5393C42.408 19.5393 42.7438 19.5316 43.0786 19.5393C43.1598 19.5303 43.2418 19.5397 43.3186 19.5666C43.3956 19.5936 43.4656 19.6374 43.5232 19.695C43.581 19.7525 43.6252 19.8223 43.6524 19.8991C43.6796 19.976 43.6892 20.058 43.6806 20.139C43.6806 21.2296 43.6882 22.3134 43.6806 23.4008C43.6806 23.8108 43.4352 24.0016 43.0264 24.0016C41.9696 24.0016 40.9118 24.0016 39.854 24.0016C39.7698 24.0134 39.6838 24.0056 39.6028 23.9792C39.5218 23.9528 39.4478 23.9082 39.3866 23.849C39.3254 23.7896 39.2786 23.7172 39.2496 23.637C39.2206 23.557 39.2104 23.4712 39.2194 23.3866C39.2194 22.3156 39.2194 21.2438 39.2194 20.1728C39.209 20.0886 39.2178 20.003 39.245 19.9224C39.272 19.8419 39.317 19.7686 39.3764 19.7078C39.4358 19.6471 39.5082 19.6005 39.588 19.5715C39.6678 19.5425 39.7533 19.5319 39.8378 19.5404C40.1572 19.5305 40.4768 19.5404 40.8736 19.5404C40.7908 15.6639 39.3752 11.9342 36.865 8.97898C34.0782 5.62252 30.1124 3.46008 25.7814 2.9355C25.7814 3.28882 25.7814 3.57126 25.7814 3.85368C25.7914 3.93418 25.783 4.01592 25.757 4.09274C25.731 4.16958 25.6878 4.23948 25.6308 4.29722C25.5738 4.35494 25.5044 4.399 25.428 4.42606C25.3514 4.45312 25.2698 4.4625 25.1892 4.45346C24.0988 4.45782 23.0082 4.45782 21.9178 4.45346C21.8372 4.46282 21.7556 4.45378 21.679 4.42698C21.6024 4.4002 21.533 4.35638 21.476 4.29882C21.4188 4.24128 21.3754 4.1715 21.3492 4.09476C21.323 4.01804 21.3146 3.93634 21.3246 3.85586C21.3246 3.57344 21.3246 3.2899 21.3246 3.00202C17.2455 3.4823 13.4772 5.41994 10.7134 8.45822C7.94969 11.4965 6.37649 15.4309 6.28347 19.5371C6.59427 19.5371 6.90833 19.5273 7.22129 19.5371C7.70547 19.5556 7.88649 19.7345 7.88977 20.2154C7.89703 21.255 7.89703 22.2942 7.88977 23.333C7.88977 23.803 7.68911 23.994 7.20929 23.9972C6.16789 24.0048 5.12647 23.9972 4.08615 23.9972C3.99817 24.0104 3.90833 24.0032 3.82363 23.976C3.73893 23.9488 3.66165 23.9024 3.59781 23.8404C3.53397 23.7786 3.48529 23.7026 3.45555 23.6188C3.42581 23.535 3.41585 23.4454 3.42639 23.357C3.42639 22.3014 3.42639 21.247 3.42639 20.1946C3.41409 20.1058 3.42253 20.0154 3.45105 19.9304C3.47959 19.8454 3.52743 19.7682 3.59083 19.7048C3.65421 19.6414 3.73145 19.5935 3.81643 19.565C3.90143 19.5365 3.99189 19.528 4.08069 19.5404C4.40021 19.5404 4.71971 19.5404 5.05559 19.5404C5.66045 11.6016 9.61019 6.03538 16.9048 2.84172H7.82761C7.68905 3.31868 7.39559 3.73592 6.99355 4.02758C6.59151 4.31924 6.10379 4.4687 5.60737 4.45236C5.09023 4.45056 4.59045 4.2657 4.19661 3.93054C3.80279 3.5954 3.54035 3.13162 3.45583 2.62144C3.36197 2.09692 3.45949 1.55613 3.73067 1.09744C4.00183 0.638745 4.42865 0.292627 4.93345 0.122037C5.42887 -0.0551377 5.97179 -0.0461937 6.46109 0.147203C6.95041 0.340599 7.35273 0.705261 7.59315 1.17327C7.65619 1.34642 7.77813 1.49188 7.93763 1.58419C8.09711 1.67649 8.28399 1.70976 8.46553 1.67816C12.5505 1.6629 16.6355 1.66835 20.7204 1.66835H21.3322C21.3322 1.29431 21.3322 0.979159 21.3322 0.662919C21.3178 0.575671 21.324 0.486279 21.3504 0.401883C21.3768 0.317487 21.4226 0.240427 21.484 0.176855C21.5454 0.113283 21.621 0.0649631 21.7044 0.0357533C21.7878 0.00654349 21.877 -0.00274627 21.9646 0.00862595C23.0216 0.00862595 24.079 0.00862595 25.1368 0.00862595C25.2244 -0.00420463 25.3138 0.00361747 25.398 0.0314681C25.482 0.0593189 25.5584 0.106427 25.621 0.169034C25.6836 0.231641 25.7306 0.308015 25.7586 0.392061C25.7864 0.476107 25.7942 0.565499 25.7814 0.653103C25.7814 0.969345 25.7814 1.28559 25.7814 1.63454C25.983 1.64545 26.138 1.66072 26.2928 1.66072C30.4738 1.66072 34.654 1.6629 38.8334 1.66726C38.9622 1.6881 39.0942 1.66204 39.2056 1.5938C39.3168 1.52557 39.3998 1.41969 39.4398 1.2954C39.6476 0.830117 40.011 0.451739 40.4674 0.225277C40.924 -0.00118637 41.445 -0.0615961 41.9412 0.0544265C42.3126 0.13609 42.657 0.311225 42.9418 0.563237C43.2267 0.815249 43.4422 1.13579 43.5684 1.49449C43.6946 1.8532 43.7272 2.23818 43.6628 2.61296C43.5986 2.98774 43.4398 3.33992 43.2012 3.63612C42.9628 3.93232 42.6528 4.16272 42.3002 4.30552C41.9478 4.4483 41.5648 4.49874 41.1874 4.45206C40.81 4.40538 40.4508 4.2631 40.1438 4.03874C39.8368 3.81436 39.5922 3.51532 39.4332 3.16996C39.3798 3.0609 39.334 2.93768 39.2826 2.81772H30.1432C37.4866 6.01504 41.4244 11.5645 42.0526 19.5404" fill="#656565"/>
<path d="M23.5606 42.4233H14.3405C13.6502 42.4233 13.4856 42.2629 13.4834 41.5857C13.4834 40.6271 13.4834 39.6687 13.4834 38.7101C13.4834 38.1485 13.671 37.9599 14.2358 37.9587C20.4466 37.9587 26.6576 37.9587 32.869 37.9587C33.4546 37.9587 33.6268 38.1463 33.6324 38.7505C33.6368 39.7087 33.6368 40.6671 33.6324 41.6261C33.6324 42.2455 33.4514 42.4221 32.8308 42.4233C29.7412 42.4233 26.6504 42.4233 23.5606 42.4233Z" fill="#656565"/>
<path d="M31.9352 43.5835C31.9352 44.8921 31.9352 46.1692 31.9352 47.445C31.9394 47.5178 31.928 47.5904 31.9022 47.6584C31.8762 47.7266 31.8362 47.7882 31.7846 47.8398C31.7332 47.8912 31.6714 47.9312 31.6034 47.9572C31.5354 47.9832 31.4626 47.9943 31.39 47.9903C31.2624 47.999 31.1338 47.9903 31.0062 47.9903H16.109C15.2693 47.9903 15.1788 47.8988 15.1777 47.0504C15.1777 45.9032 15.1777 44.7548 15.1777 43.575L31.9352 43.5835Z" fill="#656565"/>
</g>
</svg>
