<svg width="58" height="48" viewBox="0 0 58 48" fill="none" xmlns="http://www.w3.org/2000/svg">
<g clip-path="url(#clip0_0_85)">
<mask id="mask0_0_85" style="mask-type:luminance" maskUnits="userSpaceOnUse" x="0" y="0" width="58" height="48">
<path d="M58 0H0V47.5826H58V0Z" fill="white"/>
</mask>
<g mask="url(#mask0_0_85)">
<path d="M29.0749 38.4229C27.0374 38.4077 25.0207 38.011 23.1313 37.2533C22.9802 37.1844 22.8137 37.1554 22.6479 37.1691C22.4822 37.183 22.323 37.2392 22.1856 37.3323C21.0205 37.9997 19.8378 38.6384 18.6627 39.2868C18.446 39.4635 18.1795 39.5688 17.8999 39.5885C17.6203 39.6084 17.3414 39.5415 17.1018 39.3973C16.8694 39.2213 16.698 38.9777 16.6117 38.7005C16.5253 38.4233 16.5283 38.1262 16.6201 37.8507C16.8836 36.5847 17.1497 35.3175 17.4573 34.0616C17.5081 33.9039 17.5134 33.7349 17.4727 33.5744C17.4319 33.4138 17.3466 33.2677 17.2266 33.1525C15.6142 31.3517 14.4398 29.2069 13.7942 26.8839C13.1486 24.5609 13.0489 22.1217 13.5029 19.7544C13.9569 17.387 14.9524 15.1549 16.4127 13.2302C17.8729 11.3055 19.7588 9.73961 21.9249 8.65334C24.091 7.5671 26.4794 6.98952 28.906 6.96516C31.3323 6.9408 33.7321 7.47031 35.9199 8.51285C38.1077 9.55538 40.0251 11.0831 41.5241 12.9781C43.0232 14.8731 44.064 17.0848 44.566 19.4425C45.0259 21.5231 45.0515 23.6752 44.6414 25.766C44.2313 27.8568 43.3939 29.8419 42.1812 31.5989C40.9685 33.356 39.4062 34.8476 37.5905 35.9816C35.7749 37.1156 33.7444 37.868 31.6245 38.1924C30.7835 38.3266 29.9261 38.3492 29.0749 38.4229ZM37.1432 25.6421C37.7309 25.634 38.3029 25.4532 38.7872 25.1223C39.2713 24.7916 39.6459 24.3255 39.8634 23.7834C40.0809 23.2412 40.1319 22.6471 40.0094 22.0763C39.8871 21.5054 39.5968 20.9834 39.1758 20.5763C38.7549 20.1691 38.2215 19.8951 37.6437 19.7889C37.0659 19.6826 36.4692 19.7489 35.9293 19.9794C35.3892 20.2098 34.9302 20.5941 34.6103 21.0836C34.2901 21.5731 34.1233 22.1459 34.1311 22.7295C34.1434 23.5118 34.4672 24.2576 35.0317 24.8033C35.5963 25.3491 36.3554 25.6508 37.1432 25.6421ZM20.9638 25.6421C21.5515 25.656 22.1301 25.4964 22.6265 25.184C23.1229 24.8713 23.5148 24.4193 23.7526 23.8856C23.9904 23.3517 24.0635 22.7598 23.9626 22.1847C23.8617 21.6096 23.5913 21.0772 23.1856 20.6547C22.78 20.2322 22.2573 19.9387 21.6836 19.8113C21.11 19.6839 20.5112 19.7282 19.9629 19.9388C19.4147 20.1493 18.9416 20.5166 18.6036 20.9942C18.2655 21.4718 18.0777 22.0382 18.0638 22.6218C18.0459 23.404 18.3411 24.1613 18.8848 24.7275C19.4285 25.2936 20.1762 25.6227 20.9638 25.6421ZM29.0863 25.6421C29.675 25.6421 30.2504 25.4688 30.7397 25.1439C31.2289 24.8189 31.61 24.3569 31.8347 23.8166C32.0592 23.2762 32.117 22.6818 32.001 22.1087C31.885 21.5356 31.6001 21.0096 31.1827 20.5975C30.7651 20.1854 30.2339 19.9056 29.6561 19.7938C29.0783 19.6819 28.4802 19.743 27.9374 19.9692C27.3946 20.1954 26.9318 20.5767 26.6075 21.0645C26.2832 21.5524 26.1121 22.1249 26.1157 22.7094C26.114 23.0965 26.1899 23.48 26.3388 23.8377C26.4876 24.1954 26.7066 24.5201 26.983 24.793C27.2595 25.0659 27.5879 25.2814 27.949 25.4273C28.31 25.573 28.6967 25.646 29.0863 25.6421Z" fill="#656565"/>
<path d="M34.4798 44.7878C34.4798 45.0696 34.4911 45.3036 34.4798 45.539C34.4556 46.0977 34.2193 46.6262 33.8181 47.0186C33.4172 47.411 32.8814 47.638 32.3188 47.6539C30.1593 47.6824 27.9995 47.6824 25.8392 47.6539C25.2766 47.6356 24.7421 47.4055 24.344 47.0102C23.946 46.6149 23.7142 46.084 23.6957 45.5253C23.673 45.0381 23.6742 44.5473 23.6957 44.0604C23.7112 43.4908 23.9481 42.9496 24.3566 42.5498C24.765 42.15 25.3136 41.9224 25.8871 41.9152C27.0623 41.8891 28.2385 41.9004 29.4176 41.9078C33.8659 41.9318 38.1732 40.3593 41.5471 37.48C43.9504 35.5452 45.8106 33.0273 46.9474 30.1699C47.2801 29.189 47.5145 28.1776 47.6472 27.1509C47.8729 25.8988 47.9561 24.6177 48.2308 23.3781C48.6071 21.4059 48.4479 19.3699 47.7695 17.4791C45.3018 9.69434 39.9975 4.95737 31.9002 3.62378C29.3446 3.24463 26.7385 3.3767 24.235 4.0122C21.7317 4.64772 19.3815 5.77387 17.3227 7.32444C15.2638 8.87501 13.5379 10.8187 12.2464 13.0412C10.9549 15.2638 10.1239 17.7203 9.80215 20.2664C9.7223 21.7694 9.84526 23.2762 10.1678 24.7468C10.5347 27.3763 10.9685 29.9908 11.3492 32.6155C11.4461 32.914 11.4749 33.2301 11.4338 33.5412C11.3926 33.8522 11.2823 34.1503 11.111 34.414C10.9397 34.6776 10.7116 34.9 10.4432 35.0654C10.1748 35.2308 9.87267 35.3349 9.55879 35.3702C8.39521 35.8166 7.13127 35.9404 5.90228 35.7283C5.11203 35.5238 4.37132 35.1633 3.72428 34.6687C3.07724 34.1738 2.53712 33.5548 2.13606 32.8483C0.934188 31.0389 0.212715 28.9572 0.0387763 26.7964C-0.135162 24.6357 0.244087 22.4665 1.14123 20.4906C1.58504 19.3263 2.35515 18.3125 3.36057 17.5689C4.36603 16.8254 5.56474 16.3831 6.81515 16.2945C6.99041 16.2783 7.2161 15.984 7.28671 15.7749C8.39937 12.3679 10.2993 9.26664 12.8345 6.71916C15.5915 3.96295 19.0138 1.9545 22.7748 0.885578C26.5357 -0.183346 30.5099 -0.277073 34.3176 0.613343C38.1256 1.50376 41.6401 3.3486 44.5256 5.97175C47.4111 8.5949 49.5716 11.9088 50.8005 15.5971C50.9003 15.8976 50.8423 16.3346 51.3969 16.3572C52.7495 16.3937 54.0536 16.8669 55.1111 17.7051C56.1689 18.5434 56.9226 19.701 57.2588 21.0027C58.0739 23.048 58.3477 25.2664 58.0541 27.4468C57.7605 29.627 56.9093 31.696 55.5819 33.4569C55.1456 34.1457 54.5504 34.7217 53.8455 35.1364C53.1405 35.5514 52.3462 35.7933 51.5281 35.8423C50.5516 35.7883 49.5851 35.62 48.6482 35.3414C48.5022 35.2867 48.3413 35.286 48.1951 35.3395C48.0486 35.3932 47.9266 35.4974 47.8514 35.6332C44.762 40.0828 40.1655 43.2825 34.8998 44.6488C34.7736 44.6812 34.6603 44.7302 34.4824 44.7916" fill="#656565"/>
</g>
</g>
<defs>
<clipPath id="clip0_0_85">
<rect width="58" height="48" fill="white"/>
</clipPath>
</defs>
</svg>
