<svg width="48" height="48" viewBox="0 0 48 48" fill="none" xmlns="http://www.w3.org/2000/svg">
<mask id="mask0_0_104" style="mask-type:luminance" maskUnits="userSpaceOnUse" x="0" y="1" width="48" height="46">
<path d="M48 1.6521H0V46.5612H48V1.6521Z" fill="white"/>
</mask>
<g mask="url(#mask0_0_104)">
<path d="M20.37 1.67799C20.37 2.6201 20.37 3.50162 20.37 4.38316C20.37 5.71556 20.37 7.04908 20.37 8.38148C20.37 9.05442 20.646 9.32246 21.31 9.3247C23.0924 9.32994 24.875 9.32994 26.6574 9.3247C27.3516 9.3247 27.6176 9.05554 27.6198 8.35232C27.6198 6.32008 27.6198 4.28784 27.6198 2.25558V1.69482C27.8026 1.67687 27.9316 1.65332 28.0594 1.65332C30.025 1.65332 31.9908 1.65332 33.9564 1.65332C34.681 1.65332 34.9738 1.93819 34.9738 2.6414C34.9738 7.8222 34.9738 13.003 34.9738 18.1838C34.9738 18.2657 34.9636 18.3464 34.957 18.4664H13.0127V17.9539C13.0127 12.9062 13.0127 7.85922 13.0127 2.813C13.0127 1.89109 13.2471 1.65444 14.1612 1.65332C16.0439 1.65332 17.9262 1.65332 19.8082 1.65332C19.9708 1.65332 20.1356 1.66678 20.37 1.67799ZM21.1428 12.4527H17.518V13.9892H21.1484L21.1428 12.4527ZM17.518 16.6327H21.135V15.0973H17.518V16.6327Z" fill="#656565"/>
<path d="M37.8037 20.1073H42.9629C43.3957 20.1073 43.8299 20.0993 44.2627 20.1073C44.3801 20.0955 44.4985 20.1095 44.6097 20.1483C44.7211 20.1871 44.8225 20.2497 44.9073 20.3317C44.9919 20.4137 45.0577 20.5131 45.0999 20.6231C45.1423 20.7331 45.1601 20.8511 45.1521 20.9685C45.1577 21.0515 45.1521 21.1345 45.1521 21.2187C45.1521 26.3031 45.1521 31.3855 45.1521 36.4661V36.9147H24.8319V20.1331H30.5081C30.5171 20.3225 30.5327 20.4987 30.5327 20.6759C30.5327 22.6423 30.5327 24.6087 30.5327 26.5753C30.5327 27.5723 30.7503 27.7933 31.7261 27.7933C33.4091 27.7933 35.0915 27.7933 36.7731 27.7933C37.5257 27.7933 37.7981 27.5207 37.7993 26.7703C37.7993 24.7515 37.7993 22.7355 37.7993 20.7219V20.1083M27.6627 32.4611H31.2909V30.9213H27.6627V32.4611ZM27.6627 35.0877H31.2921V33.5411H27.6627V35.0877Z" fill="#656565"/>
<path d="M10.192 20.1074C10.192 22.3358 10.192 24.4814 10.192 26.6326C10.192 27.56 10.4163 27.7922 11.3315 27.7934C13.0146 27.7934 14.6969 27.7934 16.3785 27.7934C17.1894 27.7934 17.4563 27.5286 17.4585 26.7122C17.463 24.7292 17.463 22.7478 17.4585 20.768V20.1432H23.165V36.9306H2.86495C2.85485 36.7556 2.83691 36.5806 2.83691 36.4058C2.83691 31.3564 2.83691 26.3072 2.83691 21.258C2.83691 20.3384 3.07019 20.1086 3.99209 20.1086H10.1875L10.192 20.1074ZM10.9771 30.928H7.32533V32.4444H10.976L10.9771 30.928ZM10.9771 33.558H7.31861V35.0778H10.9737L10.9771 33.558Z" fill="#656565"/>
<path d="M24.01 43.3603H1.26496C0.193883 43.3603 0.000976562 43.1707 0.000976562 42.1209C0.000976562 41.2539 0.000976562 40.3881 0.000976562 39.5211C0.000976562 38.8605 0.27912 38.5869 0.939712 38.5623C1.07318 38.5623 1.20664 38.5623 1.3401 38.5623H46.6798C46.8796 38.5575 47.0796 38.5639 47.2788 38.5813C47.4664 38.5845 47.6452 38.6615 47.7764 38.7957C47.9076 38.9299 47.9806 39.1103 47.9796 39.2979C48.0066 40.3971 48.0054 41.4973 47.9796 42.5965C47.9808 42.6935 47.963 42.7899 47.9268 42.8799C47.8908 42.9701 47.8374 43.0523 47.7696 43.1217C47.7018 43.1911 47.621 43.2467 47.5318 43.2849C47.4424 43.3231 47.3466 43.3433 47.2496 43.3445C47.0504 43.3609 46.8504 43.3659 46.6506 43.3591L24.01 43.3603Z" fill="#656565"/>
<path d="M15.8267 20.1396H11.834V26.1702H15.8267V20.1396Z" fill="#656565"/>
<path d="M36.1711 20.124H32.1805V26.1692H36.1711V20.124Z" fill="#656565"/>
<path d="M25.9833 1.68237H22.0029V7.70396H25.9833V1.68237Z" fill="#656565"/>
<path d="M2.90251 44.9968H13.1467C13.1616 45.2688 13.1616 45.5414 13.1467 45.8134C13.0884 46.3202 12.7946 46.5546 12.2035 46.5592C11.0214 46.5682 9.83927 46.5592 8.65605 46.5592H4.15527C2.98661 46.5592 2.68717 46.1958 2.90251 44.989" fill="#656565"/>
<path d="M29.1576 45.0078C29.1576 45.2018 29.1576 45.3656 29.1576 45.5282C29.1464 46.2786 28.8806 46.5534 28.1302 46.5566C26.6318 46.5634 25.1324 46.5566 23.634 46.5566H20.1862C18.975 46.5566 18.735 46.2808 18.8808 45.0056L29.1576 45.0078Z" fill="#656565"/>
<path d="M34.9088 44.9866H45.0724C45.3662 46.0846 45.0152 46.5566 43.925 46.5566H36.082C34.9806 46.5566 34.6542 46.1282 34.9088 44.9866Z" fill="#656565"/>
</g>
</svg>
