<svg width="48" height="48" viewBox="0 0 48 48" fill="none" xmlns="http://www.w3.org/2000/svg">
<path d="M8.86097 37.1118C5.99583 33.8578 4.28651 29.7442 4 25.4133C5.22695 25.4133 6.39656 25.4133 7.56618 25.4133C7.83333 25.4222 8.09724 25.3527 8.32554 25.2133C8.55384 25.074 8.7366 24.8708 8.85141 24.6288C8.96368 24.4282 9.01641 24.1993 9.00336 23.9697C8.99033 23.7398 8.91209 23.5185 8.77783 23.3318C8.63805 23.115 8.44252 22.9398 8.2118 22.8248C7.98109 22.7098 7.72372 22.6593 7.4668 22.6787C6.3335 22.6892 5.20115 22.6787 4.00382 22.6787C4.31708 18.2967 6.04254 14.1355 8.92022 10.822C9.73341 11.6429 10.5093 12.4293 11.29 13.2186C11.4003 13.3734 11.5416 13.5034 11.705 13.6001C11.8684 13.6968 12.0502 13.7582 12.2386 13.7804C12.4271 13.8025 12.6181 13.7848 12.7993 13.7284C12.9806 13.6721 13.148 13.5784 13.291 13.4533C13.4398 13.3123 13.5564 13.1406 13.6326 12.9501C13.7088 12.7596 13.7428 12.5548 13.7324 12.3498C13.7219 12.1448 13.6672 11.9445 13.5721 11.7628C13.4769 11.581 13.3435 11.4222 13.1811 11.2971C12.409 10.5193 11.6264 9.74727 10.8056 8.93595C14.1072 6.04403 18.2601 4.31102 22.6335 4C22.6335 5.02301 22.6335 6.00483 22.6335 6.98667C22.6335 7.21463 22.624 7.44262 22.6383 7.66963C22.6538 8.0239 22.8027 8.35913 23.0548 8.60792C23.3068 8.8567 23.6436 9.00058 23.9971 9.01065C24.3516 9.00487 24.6899 8.86215 24.9419 8.6123C25.1938 8.36245 25.3397 8.02475 25.3493 7.66963C25.377 6.6265 25.357 5.58241 25.3608 4.53833C25.3608 4.37166 25.377 4.20594 25.3875 4.00862C29.7522 4.32338 33.8957 6.05513 37.1907 8.94168C36.3957 9.72907 35.6446 10.4743 34.8906 11.2205C34.7533 11.3402 34.6417 11.4865 34.5623 11.6507C34.4832 11.8149 34.4378 11.9934 34.4293 12.1756C34.4208 12.3578 34.4493 12.5399 34.5128 12.7107C34.5765 12.8816 34.674 13.0378 34.7995 13.1698C34.9251 13.3019 35.076 13.407 35.2431 13.479C35.4104 13.5509 35.5904 13.5882 35.7724 13.5884C35.9542 13.5887 36.1344 13.552 36.3019 13.4805C36.4692 13.409 36.6204 13.3043 36.7463 13.1726C37.1497 12.7991 37.53 12.4015 37.9141 12.0078C38.2982 11.6142 38.646 11.2415 39.0607 10.8086C41.9541 14.1226 43.6885 18.2934 44 22.6863H41.3722C41.1257 22.6863 40.8792 22.6777 40.6336 22.6863C40.4553 22.687 40.2789 22.7228 40.1144 22.7918C39.9501 22.8608 39.8008 22.9617 39.6753 23.0885C39.5498 23.2153 39.4503 23.3658 39.3828 23.5312C39.3152 23.6965 39.2808 23.8735 39.2815 24.0522C39.2822 24.2308 39.318 24.4077 39.3868 24.5725C39.4557 24.7373 39.5561 24.887 39.6828 25.0128C39.8093 25.1387 39.9593 25.2383 40.1243 25.306C40.2893 25.3738 40.4658 25.4083 40.6441 25.4077C41.6952 25.4307 42.7559 25.4133 43.893 25.4133C43.5689 29.7708 41.8427 33.9053 38.9737 37.1952C38.1797 36.381 37.4228 35.5927 36.6517 34.8197C36.4745 34.6178 36.2379 34.4775 35.9759 34.4192C35.7141 34.3608 35.4404 34.3873 35.1945 34.495C34.9828 34.5698 34.7938 34.698 34.6455 34.8668C34.4973 35.0358 34.3947 35.2402 34.3477 35.4602C34.3005 35.6802 34.3105 35.9087 34.3767 36.1237C34.4428 36.3387 34.5628 36.5332 34.7253 36.6885C35.3436 37.359 36.0047 37.9827 36.646 38.6282C36.7768 38.7603 36.902 38.8993 37.078 39.0852C33.7802 41.973 29.63 43.6992 25.2613 44C25.2613 42.9607 25.2662 41.9798 25.2613 40.998C25.2727 40.7338 25.2467 40.4693 25.184 40.2125C25.0905 39.9103 24.8924 39.6517 24.6254 39.483C24.3582 39.3145 24.0399 39.247 23.7276 39.293C23.395 39.3393 23.0905 39.5058 22.8715 39.7612C22.6525 40.0165 22.5339 40.3433 22.538 40.68C22.515 41.5527 22.5314 42.4262 22.5314 43.2988C22.5314 43.5048 22.5314 43.7098 22.5314 43.9962C18.2257 43.6672 14.1392 41.961 10.8734 39.1292L12.5045 37.43C12.8065 37.1148 13.118 36.8092 13.4057 36.4825C13.6379 36.241 13.7692 35.9195 13.7727 35.584C13.7763 35.2487 13.6518 34.9245 13.4248 34.678C13.1717 34.4165 12.8274 34.2633 12.4642 34.2507C12.101 34.238 11.747 34.3667 11.4764 34.61C10.6163 35.4068 9.77736 36.2325 8.86289 37.11M20.5256 25.4143V25.4238C21.4334 25.4238 22.3412 25.3712 23.248 25.4383C23.6919 25.466 24.1361 25.3872 24.5435 25.2085C24.951 25.0297 25.3102 24.7562 25.591 24.4105C26.8695 23.0695 28.1625 21.7342 29.4564 20.4046C30.2485 19.5904 31.0807 18.8136 31.8452 17.9754C32.0015 17.8145 32.1143 17.6162 32.1728 17.3994C32.2313 17.1825 32.2335 16.9543 32.1793 16.7363C32.1252 16.5183 32.0164 16.3178 31.8634 16.1538C31.7102 15.9898 31.5177 15.8677 31.3044 15.7991C31.0351 15.7014 30.7418 15.6922 30.4668 15.7727C30.192 15.8533 29.9498 16.0196 29.7755 16.2474C27.7888 18.2772 25.8013 20.3069 23.7926 22.3147C23.5684 22.524 23.2778 22.6478 22.9718 22.6642C21.0808 22.6948 19.1897 22.6748 17.2977 22.6833C17.1161 22.678 16.9352 22.709 16.7657 22.7748C16.5963 22.8407 16.4417 22.9398 16.3111 23.0663C16.1805 23.193 16.0765 23.3447 16.0053 23.5122C15.9341 23.6797 15.8971 23.8598 15.8964 24.042C15.8958 24.2242 15.9316 24.4045 16.0016 24.5727C16.0716 24.7407 16.1746 24.893 16.3043 25.0205C16.434 25.1482 16.5879 25.2483 16.7568 25.3153C16.9258 25.3823 17.1065 25.4147 17.2881 25.4105C18.366 25.423 19.4439 25.4105 20.5227 25.4105" fill="#656565"/>
</svg>
